# xmcd
#
# Track frame offsets:
#	150
#	22625
#	44288
#	62517
#	74233
#	97412
#	115349
#	133892
#	156740
#	177157
#	201861
#	225869
#	242917
#	256134
#	271082
#	292321
#	312271
#	328410
#
# Disc length: 4696 seconds
#
# Revision: 0
# Processed by: cddbd v1.5.2PL0 Copyright (c) Steve Scherf et al.
# Submitted via: EasyCDDAExtractor 7.7.1.2
#
DISCID=17125612
DTITLE=Various Artist - Jesus Is (The) Rock
DYEAR=1900
DGENRE=
TTITLE0=Blind Boys Of Alabama - Jesus Gonna Be Here
TTITLE1=Blind Boys Of Alabama - No More
TTITLE2=Johnny Cash - He Turned The Water Into Wine
TTITLE3=Townes Van Zandt - Two Hands
TTITLE4=Johnny Cash - Spiritual
TTITLE5=Bob Dylan - Solid Rock
TTITLE6=Bob Dylan - The Groom's Still Waiting At The Altar
TTITLE7=Buddy Miller - Fall On The Rock
TTITLE8=Bob Dylan - When He Returns
TTITLE9=Dottie Peoples - I Believe In You
TTITLE10=The Dirty Dozen Brass Band - Jesus In The Mainline
TTITLE11=Ben Harper and Blind Boys Of Alabama - Pictures Of Jesus
TTITLE12=Bruce Springsteen - Jesus Was An Only Son
TTITLE13=Johnny Cash - Softly And Tenderly
TTITLE14=Ollabelle - No More My Lawd
TTITLE15=Ollabelle - Can't Nobody Do Me Like Jesus
TTITLE16=Ben Harper and Blind Boys Of Alabama - Wicked Man
TTITLE17=Bob Dylan and Mavis Staple - Gonna Change My Way Of Thinking
EXTD=
EXTT0=
EXTT1=
EXTT2=
EXTT3=
EXTT4=
EXTT5=
EXTT6=
EXTT7=
EXTT8=
EXTT9=
EXTT10=
EXTT11=
EXTT12=
EXTT13=
EXTT14=
EXTT15=
EXTT16=
EXTT17=
PLAYORDER=
